<svg width="860" height="884" viewBox="0 0 860 884" fill="none" xmlns="http://www.w3.org/2000/svg">
<path fill-rule="evenodd" clip-rule="evenodd" d="M414.846 0.584341C497.155 -4.80644 583.072 27.3508 640.386 86.7397C693.943 142.235 666.342 236.76 706.397 302.689C767.779 403.719 944.709 448.037 931.275 565.522C918.827 674.38 750.55 674.262 657.342 731.685C574.084 782.978 512.362 890.592 414.846 883.682C317.308 876.771 270.457 762.538 196.07 698.999C129.614 642.235 21.3929 617.035 2.66541 531.611C-16.1083 445.976 69.089 376.239 108.104 297.747C139.919 233.741 158.455 164.658 209.773 114.942C267.414 59.1013 334.808 5.82639 414.846 0.584341Z" fill="#00A9FF"/>
</svg>
