<svg width="497" height="840" viewBox="0 0 497 840" fill="none" xmlns="http://www.w3.org/2000/svg">
<path fill-rule="evenodd" clip-rule="evenodd" d="M419.304 117.036C505.327 115.396 563.562 -16.8561 647.79 1.8034C725.917 19.1112 788.726 114.546 790.964 199.371C793.286 287.334 681.841 331.961 658.733 416.458C640.73 482.287 698.905 552.673 676.739 617.05C651.552 690.2 596.773 750.748 531.472 786.058C459.653 824.894 367.768 863.518 297.121 822.324C224.529 779.997 245.113 656.782 192.779 588.569C142.996 523.682 31.5382 522.279 6.11186 443.023C-18.9117 365.023 38.8774 285.713 71.6604 211.035C104.179 136.958 121.513 30.5621 196.022 10.4158C276.728 -11.406 336.043 118.623 419.304 117.036Z" fill="#00A9FF"/>
</svg>
